# xmcd
#
# Track frame offsets: 
#        150
#        11033
#        34501
#        49337
#        66863
#        81749
#        94811
#        112016
#
# Disc length: 1657 seconds
#
# Revision: 0
# Processed by: cddbd v1.5.2PL0 Copyright (c) Steve Scherf et al.
# Submitted via: ExactAudioCopy v0.99pb5
#
DISCID=6c067708
DTITLE=Benny Weber - Blue Dog
DYEAR=1900
DGENRE=
TTITLE0=Both Sides Now
TTITLE1=The Sky is Cryin'
TTITLE2=Apache
TTITLE3=Brown Eyed Girl
TTITLE4=Go Insane
TTITLE5=Blue Dog
TTITLE6=Sleepwalk
TTITLE7=Water is Wide
EXTD=
EXTT0=
EXTT1=
EXTT2=
EXTT3=
EXTT4=
EXTT5=
EXTT6=
EXTT7=
PLAYORDER=
